<svg xmlns="http://www.w3.org/2000/svg" width="1353" height="285" viewBox="44 255 1353 285" preserveAspectRatio="xMidYMid meet" version="1.0"><defs><g/><clipPath id="ff67911aa0"><rect x="0" width="1353" y="0" height="419"/></clipPath></defs><g transform="matrix(1, 0, 0, 1, 44, 194)"><g clip-path="url(#ff67911aa0)"><g fill="#000000" fill-opacity="1"><g transform="translate(0.169445, 334.456048)"><g><path d="M 264.484375 -73.828125 C 257.660156 -47.140625 245.410156 -27.320312 227.734375 -14.375 C 210.054688 -1.4375 186.3125 5.03125 156.5 5.03125 C 112.820312 5.03125 78.300781 -7.015625 52.9375 -31.109375 C 27.582031 -55.203125 14.90625 -87.875 14.90625 -129.125 C 14.90625 -170.488281 27.582031 -203.210938 52.9375 -227.296875 C 78.300781 -251.390625 112.820312 -263.4375 156.5 -263.4375 C 171.875 -263.4375 187.878906 -261.585938 204.515625 -257.890625 C 221.148438 -254.191406 238.769531 -248.585938 257.375 -241.078125 L 257.375 -177.484375 L 235.359375 -177.484375 C 230.859375 -199.203125 222.65625 -215.460938 210.75 -226.265625 C 198.851562 -237.066406 183.140625 -242.46875 163.609375 -242.46875 C 138.421875 -242.46875 119.703125 -233.191406 107.453125 -214.640625 C 95.203125 -196.097656 89.078125 -167.59375 89.078125 -129.125 C 89.078125 -90.644531 95.203125 -62.160156 107.453125 -43.671875 C 119.703125 -25.179688 138.535156 -15.9375 163.953125 -15.9375 C 181.171875 -15.9375 195.238281 -20.734375 206.15625 -30.328125 C 217.070312 -39.921875 225.015625 -54.421875 229.984375 -73.828125 Z M 264.484375 -73.828125 "/></g></g><g transform="translate(282.671322, 334.456048)"><g><path d="M 16.640625 0 L 16.640625 -20.96875 L 49.734375 -20.96875 L 49.734375 -237.796875 L 16.640625 -237.796875 L 16.640625 -258.765625 L 249.234375 -258.765625 L 249.234375 -197.75 L 225.3125 -197.75 L 225.3125 -235.015625 L 116.46875 -235.015625 L 116.46875 -152 L 184.234375 -152 L 184.234375 -184.921875 L 207.984375 -184.921875 L 207.984375 -95.5 L 184.234375 -95.5 L 184.234375 -128.421875 L 116.46875 -128.421875 L 116.46875 -23.75 L 228.609375 -23.75 L 228.609375 -61 L 252.34375 -61 L 252.34375 0 Z M 16.640625 0 "/></g></g></g><g fill="#ffbd2a" fill-opacity="1"><g transform="translate(553.216188, 334.456048)"><g><path d="M 43.328125 -20.96875 L 74.171875 -20.96875 L 74.171875 0 L -2.765625 0 L -2.765625 -20.96875 L 18.375 -20.96875 L 115.78125 -258.765625 L 157.203125 -258.765625 L 254.78125 -20.96875 L 279.390625 -20.96875 L 279.390625 0 L 158.234375 0 L 158.234375 -20.96875 L 183.546875 -20.96875 L 113.875 -193.765625 Z M 43.328125 -20.96875 "/></g></g></g><g fill="#000000" fill-opacity="1"><g transform="translate(828.623916, 334.456048)"><g><path d="M 16.640625 0 L 16.640625 -20.96875 L 49.734375 -20.96875 L 49.734375 -237.796875 L 16.640625 -237.796875 L 16.640625 -258.765625 L 163.953125 -258.765625 C 192.722656 -258.765625 215.597656 -251.914062 232.578125 -238.21875 C 249.566406 -224.53125 258.0625 -206.191406 258.0625 -183.203125 C 258.0625 -160.085938 249.539062 -141.625 232.5 -127.8125 C 215.457031 -114.007812 192.609375 -107.109375 163.953125 -107.109375 L 116.46875 -107.109375 L 116.46875 -20.96875 L 158.234375 -20.96875 L 158.234375 0 Z M 116.46875 -128.078125 L 135.875 -128.078125 C 150.894531 -128.078125 162.882812 -133.070312 171.84375 -143.0625 C 180.800781 -153.0625 185.28125 -166.441406 185.28125 -183.203125 C 185.28125 -199.835938 180.828125 -213.09375 171.921875 -222.96875 C 163.023438 -232.851562 151.007812 -237.796875 135.875 -237.796875 L 116.46875 -237.796875 Z M 116.46875 -128.078125 "/></g></g><g transform="translate(1095.527531, 334.456048)"><g><path d="M 27.390625 -12.484375 L 27.390625 -73.828125 L 49.390625 -73.828125 C 52.742188 -54.421875 60.660156 -39.921875 73.140625 -30.328125 C 85.617188 -20.734375 102.894531 -15.9375 124.96875 -15.9375 C 142.875 -15.9375 156.503906 -19.34375 165.859375 -26.15625 C 175.222656 -32.976562 179.90625 -42.976562 179.90625 -56.15625 C 179.90625 -66.550781 176.726562 -74.632812 170.375 -80.40625 C 164.019531 -86.1875 150.90625 -91.5625 131.03125 -96.53125 L 92.203125 -106.0625 C 66.898438 -112.539062 49.101562 -121.523438 38.8125 -133.015625 C 28.53125 -144.515625 23.390625 -160.894531 23.390625 -182.15625 C 23.390625 -207.800781 31.910156 -227.757812 48.953125 -242.03125 C 66.003906 -256.300781 89.894531 -263.4375 120.625 -263.4375 C 135.757812 -263.4375 151.5 -262.164062 167.84375 -259.625 C 184.195312 -257.082031 201.15625 -253.269531 218.71875 -248.1875 L 218.71875 -191 L 196.71875 -191 C 193.363281 -208.789062 186.023438 -221.816406 174.703125 -230.078125 C 163.378906 -238.335938 147.257812 -242.46875 126.34375 -242.46875 C 109.25 -242.46875 96.335938 -239.492188 87.609375 -233.546875 C 78.890625 -227.597656 74.53125 -218.726562 74.53125 -206.9375 C 74.53125 -196.195312 77.53125 -188.023438 83.53125 -182.421875 C 89.539062 -176.816406 104.273438 -171.007812 127.734375 -165 L 166.5625 -155.46875 C 190.59375 -149.457031 208.007812 -140.097656 218.8125 -127.390625 C 229.613281 -114.679688 235.015625 -97.175781 235.015625 -74.875 C 235.015625 -48.757812 226 -28.910156 207.96875 -15.328125 C 189.945312 -1.753906 163.429688 5.03125 128.421875 5.03125 C 111.554688 5.03125 94.800781 3.582031 78.15625 0.6875 C 61.519531 -2.195312 44.597656 -6.585938 27.390625 -12.484375 Z M 27.390625 -12.484375 "/></g></g></g></g></g></svg>
